<?xml version="1.0" standalone="no"?>
<!DOCTYPE svg PUBLIC "-//W3C//DTD SVG 20010904//EN"
 "http://www.w3.org/TR/2001/REC-SVG-20010904/DTD/svg10.dtd">
<svg version="1.0" xmlns="http://www.w3.org/2000/svg"
 width="700.000000pt" height="700.000000pt" viewBox="0 0 700.000000 700.000000"
 preserveAspectRatio="xMidYMid meet">
<metadata>
Created by potrace 1.14, written by Peter Selinger 2001-2017
</metadata>
<g transform="translate(0.000000,700.000000) scale(0.100000,-0.100000)"
fill="#000000" stroke="none">
<path d="M1102 3853 l3 -3148 85 -58 c383 -262 816 -458 1278 -577 84 -22 159
-40 167 -40 13 0 15 98 15 775 0 426 3 775 8 775 4 0 43 -7 87 -15 200 -39
384 -56 645 -62 286 -6 467 4 693 38 73 11 149 23 170 26 l37 6 0 -787 c0
-670 2 -786 14 -786 29 0 341 82 456 120 352 117 678 275 983 477 l127 85 0
793 0 793 -138 -92 c-318 -210 -683 -383 -1037 -491 -122 -37 -349 -95 -372
-95 -10 0 -13 154 -13 780 0 617 -3 780 -12 780 -7 0 -64 -9 -126 -20 -445
-78 -945 -76 -1402 6 -47 8 -93 17 -102 20 -17 5 -18 51 -18 790 0 621 3 784
13 784 6 0 59 -9 117 -19 249 -45 374 -55 695 -56 347 0 559 18 808 71 l27 6
0 794 c0 753 -1 795 -17 790 -26 -8 -251 -43 -373 -58 -162 -20 -749 -17 -915
5 -659 87 -1238 300 -1758 644 -73 49 -135 89 -140 91 -4 2 -6 -1413 -5 -3145z"/>
<path d="M5780 5348 c-366 -257 -855 -475 -1322 -589 l-138 -34 0 -788 0 -787
28 6 c136 32 347 89 434 118 338 111 680 277 976 473 l112 75 0 794 c0 437 -1
794 -2 793 -2 -1 -41 -28 -88 -61z"/>
</g>
</svg>
