<svg width="12" height="7" viewBox="0 0 12 7" fill="currentColor" xmlns="http://www.w3.org/2000/svg">
<path d="M5.28015 6.78C5.42066 6.92069 5.6113 6.99982 5.81015 7L6.19015 7C6.38856 6.9977 6.57843 6.91888 6.72015 6.78L11.8501 1.64C11.9448 1.54612 11.998 1.41832 11.998 1.285C11.998 1.15168 11.9448 1.02388 11.8501 0.93L11.1401 0.22C11.048 0.125936 10.9218 0.0729284 10.7901 0.0729284C10.6585 0.0729284 10.5323 0.125936 10.4401 0.22L6.00015 4.67L1.56015 0.22C1.46626 0.125343 1.33847 0.0721005 1.20515 0.0721005C1.07183 0.0721005 0.944031 0.125343 0.850147 0.22L0.150148 0.93C0.0554915 1.02388 0.00224883 1.15168 0.00224883 1.285C0.00224883 1.41832 0.0554915 1.54612 0.150148 1.64L5.28015 6.78Z" />
</svg>
