<svg viewBox="0 0 30 30" stroke="currentColor" fill="none" xmlns="http://www.w3.org/2000/svg">
<path d="M10.332 25.5044V5.66276C10.332 5.01816 10.8546 4.49561 11.4992 4.49561H18.5021C19.1467 4.49561 19.6693 5.01816 19.6693 5.66276V25.5044" stroke-width="1.75" stroke-linecap="round" stroke-linejoin="round"/>
<path d="M25.5057 25.5047V10.2302C25.5057 9.64164 25.0286 9.16455 24.4401 9.16455H19.6699"  stroke-width="1.75" stroke-linecap="round" stroke-linejoin="round"/>
<path d="M10.3319 9.16455H5.5617C4.97318 9.16455 4.49609 9.64164 4.49609 10.2302V25.5047"  stroke-width="1.75" stroke-linecap="round" stroke-linejoin="round"/>
<path d="M19.6699 12.6656H22.5878" stroke-width="1.75" stroke-linecap="round" stroke-linejoin="round"/>
<path d="M19.6699 16.1671H22.5878" stroke-width="1.75" stroke-linecap="round" stroke-linejoin="round"/>
<path d="M19.6699 19.669H22.5878" stroke-width="1.75" stroke-linecap="round" stroke-linejoin="round"/>
<path d="M7.41406 12.6656H10.3319" stroke-width="1.75" stroke-linecap="round" stroke-linejoin="round"/>
<path d="M7.41406 16.1671H10.3319" stroke-width="1.75" stroke-linecap="round" stroke-linejoin="round"/>
<path d="M7.41406 19.669H10.3319" stroke-width="1.75" stroke-linecap="round" stroke-linejoin="round"/>
<path d="M13.248 16.1671H16.7495" stroke-width="1.75" stroke-linecap="round" stroke-linejoin="round"/>
<path d="M13.248 19.669H16.7495" stroke-width="1.75" stroke-linecap="round" stroke-linejoin="round"/>
<path d="M13.248 12.6656H16.7495" stroke-width="1.75" stroke-linecap="round" stroke-linejoin="round"/>
<path d="M13.248 9.16463H16.7495" stroke-width="1.75" stroke-linecap="round" stroke-linejoin="round"/>
<path d="M14.9996 23.1699V25.5042" stroke-width="1.75" stroke-linecap="round" stroke-linejoin="round"/>
<path d="M26.6712 25.505H3.32812" stroke-width="1.75" stroke-linecap="round" stroke-linejoin="round"/>
</svg>
