<svg width="18" height="20" viewBox="0 0 18 20" fill="none" stroke="black" xmlns="http://www.w3.org/2000/svg">
<path fill-rule="evenodd" clip-rule="evenodd" d="M12.0017 17.4032V8.86266C12.0017 8.43748 11.8326 8.03031 11.5325 7.73018L9.26952 5.46724C8.96939 5.16712 8.56222 4.99805 8.13704 4.99805H2.59774C1.71337 4.99805 0.99707 5.71435 0.99707 6.59871V17.4032C0.99707 18.2876 1.71337 19.0039 2.59774 19.0039H10.401C11.2854 19.0039 12.0017 18.2876 12.0017 17.4032Z" stroke-width="1.5" stroke-linecap="round" stroke-linejoin="round"/>
<path d="M12.0015 15.0024H15.4029C16.2873 15.0024 17.0036 14.2861 17.0036 13.4017V4.86119C17.0036 4.43601 16.8345 4.02884 16.5344 3.72872L14.2715 1.46578C13.9713 1.16565 13.5642 0.996582 13.139 0.996582H7.59969C6.71532 0.996582 5.99902 1.71288 5.99902 2.59725V4.99825" stroke-width="1.5" stroke-linecap="round" stroke-linejoin="round"/>
<path d="M17.0036 4.99825H13.8023C13.3601 4.99825 13.002 4.6401 13.002 4.19792V0.996582" stroke-width="1.5" stroke-linecap="round" stroke-linejoin="round"/>
<path d="M12.0017 8.99971H8.80033C8.35815 8.99971 8 8.64156 8 8.19938V4.99805" stroke-width="1.5" stroke-linecap="round" stroke-linejoin="round"/>
</svg>
