<svg width="26" height="26" viewBox="0 0 26 26" fill="none" stroke="currentColor" xmlns="http://www.w3.org/2000/svg">
<path d="M7.49805 12.9972C7.49805 12.7221 7.27295 12.497 6.99784 12.5C6.72272 12.5 6.49763 12.7251 6.49763 13.0002C6.49763 13.2754 6.72272 13.5004 6.99784 13.5004C7.27295 13.5004 7.49805 13.2754 7.49805 12.9972" stroke-width="1.5" stroke-linecap="round" stroke-linejoin="round"/>
<path d="M13.5 12.9972C13.5 12.7221 13.2749 12.497 12.9998 12.5C12.7247 12.5 12.4996 12.7251 12.4996 13.0002C12.4996 13.2754 12.7247 13.5004 12.9998 13.5004C13.2749 13.5004 13.5 13.2754 13.5 12.9972" stroke-width="1.5" stroke-linecap="round" stroke-linejoin="round"/>
<path d="M19.5029 12.9972C19.5029 12.7221 19.2778 12.497 19.0027 12.5C18.7276 12.5 18.5025 12.7251 18.5025 13.0002C18.5025 13.2754 18.7276 13.5004 19.0027 13.5004C19.2778 13.5004 19.5029 13.2754 19.5029 12.9972" stroke-width="1.5" stroke-linecap="round" stroke-linejoin="round"/>
</svg>
