<svg viewBox="0 0 16 16" fill="currentColor" xmlns="http://www.w3.org/2000/svg">
<path fill-rule="evenodd" clip-rule="evenodd" d="M1.33301 7.99992C1.33301 4.31802 4.31778 1.33325 7.99967 1.33325C9.76779 1.33325 11.4635 2.03563 12.7137 3.28587C13.964 4.53612 14.6663 6.23181 14.6663 7.99992C14.6663 11.6818 11.6816 14.6666 7.99967 14.6666C4.31778 14.6666 1.33301 11.6818 1.33301 7.99992ZM2.66634 7.99992C2.66634 10.9454 5.05416 13.3333 7.99967 13.3333C9.41416 13.3333 10.7707 12.7713 11.7709 11.7712C12.7711 10.771 13.333 9.41441 13.333 7.99992C13.333 5.0544 10.9452 2.66659 7.99967 2.66659C5.05416 2.66659 2.66634 5.0544 2.66634 7.99992ZM7.66634 9.99993C7.48225 9.99993 7.33301 10.1492 7.33301 10.3333V10.9999C7.33301 11.184 7.48225 11.3333 7.66634 11.3333H8.33301C8.5171 11.3333 8.66634 11.184 8.66634 10.9999V10.3333C8.66634 10.1492 8.5171 9.99993 8.33301 9.99993H7.66634ZM7.54634 4.66659H8.453C8.5488 4.6659 8.64026 4.70646 8.70406 4.77791C8.76786 4.84937 8.79783 4.94482 8.78634 5.03993L8.51967 8.51993C8.5095 8.60409 8.43777 8.6672 8.353 8.66659H7.64634C7.56157 8.6672 7.48984 8.60409 7.47967 8.51993L7.213 5.03993C7.2015 4.94482 7.23148 4.84937 7.29528 4.77791C7.35908 4.70646 7.45054 4.6659 7.54634 4.66659Z" />
</svg>
