<svg width="42" height="42" viewBox="0 0 42 42" fill="none" xmlns="http://www.w3.org/2000/svg">
<path d="M31.0041 12.6626V9.32789C31.0041 7.48545 29.5118 5.99316 27.6693 5.99316H9.32837C7.48594 5.99316 5.99365 7.48545 5.99365 9.32789V17.6647C5.99365 19.5071 7.48594 20.9994 9.32837 20.9994H12.6631" stroke="#323232" stroke-width="1.5" stroke-linecap="round" stroke-linejoin="round"/>
<path fill-rule="evenodd" clip-rule="evenodd" d="M33.4117 36.0061H15.2575C13.8236 36.0061 12.6631 34.8457 12.6631 33.4117V15.2575C12.6631 13.8236 13.8236 12.6631 15.2575 12.6631H33.4134C34.8457 12.6631 36.0061 13.8236 36.0061 15.2575V33.4134C36.0061 34.8457 34.8457 36.0061 33.4117 36.0061Z" stroke="#323232" stroke-width="1.5" stroke-linecap="round" stroke-linejoin="round"/>
<path d="M26.9289 17.665L23.6875 20.9064L21.7417 18.9606" stroke="#323232" stroke-width="1.5" stroke-linecap="round" stroke-linejoin="round"/>
<path d="M17.665 26.0016H31.0039" stroke="#323232" stroke-width="1.5" stroke-linecap="round" stroke-linejoin="round"/>
<path d="M17.665 31.0036H31.0039" stroke="#323232" stroke-width="1.5" stroke-linecap="round" stroke-linejoin="round"/>
</svg>
