<svg viewBox="0 0 16 16" fill="curentColor" xmlns="http://www.w3.org/2000/svg">
<g>
<path d="M8.00025 11.9999C7.81136 11.9999 7.65314 11.9359 7.52558 11.8079C7.39758 11.6803 7.33358 11.5221 7.33358 11.3332C7.33358 11.1443 7.39758 10.9861 7.52558 10.8586C7.65314 10.7306 7.81136 10.6666 8.00025 10.6666C8.18914 10.6666 8.34758 10.7306 8.47558 10.8586C8.60314 10.9861 8.66692 11.1443 8.66692 11.3332C8.66692 11.5221 8.60314 11.6803 8.47558 11.8079C8.34758 11.9359 8.18914 11.9999 8.00025 11.9999ZM7.33358 9.33324V7.31657L8.66692 8.6499V9.33324C8.66692 9.52212 8.60314 9.68035 8.47558 9.8079C8.34758 9.9359 8.18914 9.9999 8.00025 9.9999C7.81136 9.9999 7.65314 9.9359 7.52558 9.8079C7.39758 9.68035 7.33358 9.52212 7.33358 9.33324ZM14.5503 12.6332L10.9169 9.01657L8.00025 3.9999L7.21692 5.33324L6.25025 4.36657L7.41692 2.33324C7.53914 2.11101 7.73358 1.9999 8.00025 1.9999C8.26692 1.9999 8.46136 2.11101 8.58358 2.33324L14.5503 12.6332ZM2.96692 12.6666H10.7836L5.83358 7.71657L2.96692 12.6666ZM13.1836 15.0499L12.1169 13.9999H1.81692C1.56136 13.9999 1.37247 13.8888 1.25025 13.6666C1.12803 13.4443 1.12803 13.2221 1.25025 12.9999L4.86692 6.7499L0.916917 2.7999C0.783584 2.66657 0.719584 2.50812 0.724917 2.32457C0.730695 2.14146 0.80025 1.98324 0.933584 1.8499C1.06692 1.71657 1.22536 1.6499 1.40892 1.6499C1.59203 1.6499 1.75025 1.71657 1.88358 1.8499L14.1336 14.1166C14.2669 14.2499 14.3336 14.4055 14.3336 14.5832C14.3336 14.761 14.2669 14.9166 14.1336 15.0499C14.0003 15.1832 13.842 15.2499 13.6589 15.2499C13.4754 15.2499 13.3169 15.1832 13.1836 15.0499Z" />
</g>
</svg>
