<svg width="24" height="24" viewBox="0 0 12 12" fill="none" xmlns="http://www.w3.org/2000/svg">
<path d="M11.8499 10.44C11.9445 10.5339 11.9978 10.6617 11.9978 10.795C11.9978 10.9283 11.9445 11.0561 11.8499 11.15L11.1499 11.85C11.056 11.9446 10.9282 11.9979 10.7949 11.9979C10.6615 11.9979 10.5337 11.9446 10.4399 11.85L5.99985 7.40997L1.55985 11.85C1.46597 11.9446 1.33817 11.9979 1.20485 11.9979C1.07153 11.9979 0.943736 11.9446 0.849852 11.85L0.149852 11.15C0.055196 11.0561 0.00195312 10.9283 0.00195312 10.795C0.00195312 10.6617 0.055196 10.5339 0.149852 10.44L4.58985 5.99997L0.149852 1.55997C0.055196 1.46609 0.00195313 1.33829 0.00195313 1.20497C0.00195313 1.07166 0.055196 0.943858 0.149852 0.849974L0.849852 0.149974C0.943736 0.055318 1.07153 0.0020752 1.20485 0.0020752C1.33817 0.0020752 1.46597 0.055318 1.55985 0.149974L5.99985 4.58997L10.4399 0.149974C10.5337 0.055318 10.6615 0.0020752 10.7949 0.0020752C10.9282 0.0020752 11.056 0.055318 11.1499 0.149974L11.8499 0.849974C11.9445 0.943858 11.9978 1.07166 11.9978 1.20497C11.9978 1.33829 11.9445 1.46609 11.8499 1.55997L7.40985 5.99997L11.8499 10.44Z" fill="currentColor"/>
</svg>
