<svg width="41" height="40" viewBox="0 0 41 40" fill="none" xmlns="http://www.w3.org/2000/svg">
<path fill-rule="evenodd" clip-rule="evenodd" d="M33.4997 21.7018C33.4997 27.993 25.7583 32.6664 22.0665 34.5428C20.8754 35.1518 19.4646 35.1531 18.2724 34.5462C14.5832 32.6715 6.83301 27.9867 6.83301 21.7018V12.616C6.84526 11.7645 7.49006 11.0557 8.33651 10.9632C11.873 10.6944 15.2636 9.44052 18.124 7.34355C19.3361 6.44147 20.9965 6.44147 22.2086 7.34355C25.069 9.44052 28.4596 10.6944 31.9961 10.9632C32.8426 11.0557 33.4874 11.7645 33.4997 12.616V21.7018Z" stroke="#323232" stroke-width="2" stroke-linecap="round" stroke-linejoin="round"/>
<path d="M22.8333 19.167L19.5018 22.5003L17.5 20.5003" stroke="#323232" stroke-width="2" stroke-linecap="round" stroke-linejoin="round"/>
</svg>
