<svg viewBox="0 0 20 17" fill="currentColor" xmlns="http://www.w3.org/2000/svg">
<path d="M17.95 5.34961C17.95 4.9354 17.6142 4.59961 17.2 4.59961C16.7858 4.59961 16.45 4.9354 16.45 5.34961H17.95ZM1.60565 12.1072C1.36134 11.7728 0.89213 11.6996 0.557638 11.944C0.223145 12.1883 0.150037 12.6575 0.394347 12.992L1.60565 12.1072ZM0.87257 11.8105C0.464379 11.8809 0.190527 12.2688 0.260905 12.677C0.331283 13.0852 0.719239 13.3591 1.12743 13.2887L0.87257 11.8105ZM3.7 11.6496L3.93829 12.3607C4.18386 12.2785 4.36961 12.0753 4.4296 11.8233C4.4896 11.5714 4.41535 11.3063 4.23322 11.1222L3.7 11.6496ZM2.8 0.849609L3.46058 0.494455C3.33797 0.266395 3.10639 0.117712 2.84798 0.101146C2.58958 0.0845795 2.34091 0.202473 2.19018 0.413009L2.8 0.849609ZM8.2 5.34961L8.02288 6.07839C8.24223 6.13171 8.47393 6.08338 8.65369 5.94683C8.83344 5.81027 8.94213 5.60002 8.94959 5.3744L8.2 5.34961ZM16.3 2.64961L15.6738 3.06238C15.8126 3.27291 16.0479 3.39961 16.3 3.39961V2.64961ZM19 2.64961L19.624 3.06563C19.7775 2.83549 19.7918 2.53958 19.6613 2.29572C19.5307 2.05185 19.2766 1.89961 19 1.89961V2.64961ZM16.576 4.93358C16.3462 5.27823 16.4393 5.74388 16.784 5.97365C17.1286 6.20341 17.5943 6.11028 17.824 5.76563L16.576 4.93358ZM16.45 5.34961C16.45 8.36158 15.5901 10.8706 14.0501 12.6159C12.5204 14.3495 10.2593 15.3996 7.3 15.3996V16.8996C10.6407 16.8996 13.3296 15.6997 15.1749 13.6083C17.0099 11.5286 17.95 8.63764 17.95 5.34961H16.45ZM7.3 15.3996C5.64458 15.3996 4.5374 14.9721 3.70459 14.3828C2.84887 13.7772 2.23772 12.9726 1.60565 12.1072L0.394347 12.992C1.01928 13.8476 1.75813 14.843 2.83816 15.6072C3.9411 16.3877 5.35542 16.8996 7.3 16.8996V15.3996ZM1.12743 13.2887C1.15119 13.2846 1.16958 13.2802 1.17593 13.2787C1.18458 13.2766 1.19158 13.2748 1.19578 13.2736C1.20418 13.2714 1.21102 13.2694 1.21457 13.2683C1.22212 13.2661 1.229 13.264 1.23345 13.2626C1.24301 13.2596 1.25419 13.2561 1.26552 13.2524C1.28875 13.2449 1.32054 13.2345 1.35881 13.2219C1.43573 13.1966 1.54331 13.1609 1.67073 13.1186C1.92579 13.0338 2.26283 12.9213 2.5986 12.8091C2.93446 12.6968 3.26937 12.5847 3.5203 12.5007C3.64577 12.4587 3.75026 12.4237 3.82338 12.3992C3.85994 12.387 3.88866 12.3774 3.90825 12.3708C3.91804 12.3675 3.92555 12.365 3.93061 12.3633C3.93314 12.3625 3.93506 12.3618 3.93634 12.3614C3.93699 12.3612 3.93747 12.361 3.9378 12.3609C3.93796 12.3609 3.93808 12.3608 3.93816 12.3608C3.93821 12.3608 3.93824 12.3608 3.93826 12.3608C3.93828 12.3608 3.93829 12.3607 3.7 11.6496C3.46171 10.9385 3.4617 10.9385 3.46168 10.9385C3.46166 10.9385 3.46163 10.9385 3.46159 10.9385C3.46151 10.9385 3.46139 10.9386 3.46123 10.9386C3.46091 10.9387 3.46042 10.9389 3.45978 10.9391C3.4585 10.9395 3.45659 10.9402 3.45407 10.941C3.44902 10.9427 3.44152 10.9452 3.43175 10.9485C3.41219 10.9551 3.3835 10.9647 3.34697 10.9769C3.2739 11.0014 3.16949 11.0364 3.0441 11.0783C2.79331 11.1623 2.45867 11.2743 2.12315 11.3864C1.78755 11.4986 1.4514 11.6108 1.19749 11.6952C1.07042 11.7374 0.964575 11.7725 0.889871 11.7971C0.852328 11.8095 0.82377 11.8188 0.804687 11.8249C0.794858 11.8281 0.789388 11.8299 0.787146 11.8306C0.785692 11.831 0.787872 11.8303 0.791976 11.8291C0.793806 11.8286 0.799235 11.827 0.806541 11.825C0.810195 11.824 0.816726 11.8223 0.824991 11.8203C0.830954 11.8189 0.849037 11.8146 0.87257 11.8105L1.12743 13.2887ZM4.23322 11.1222C1.48941 8.34825 1.28417 4.2552 3.40982 1.28621L2.19018 0.413009C-0.352168 3.96402 -0.101407 8.87297 3.16678 12.177L4.23322 11.1222ZM2.13942 1.20476C3.31949 3.39968 5.53919 5.47477 8.02288 6.07839L8.37712 4.62082C6.40881 4.14245 4.49451 2.41754 3.46058 0.494455L2.13942 1.20476ZM8.94959 5.3744C8.98716 4.23841 9.38797 3.29928 10.0242 2.64917C10.6563 2.00316 11.5621 1.59961 12.7 1.59961V0.0996094C11.1869 0.0996094 9.88565 0.646063 8.95209 1.60005C8.02253 2.54994 7.49883 3.86081 7.45041 5.32482L8.94959 5.3744ZM12.7 1.59961C13.5057 1.59961 14.0959 1.75252 14.5489 1.99428C15.0003 2.23518 15.3617 2.58896 15.6738 3.06238L16.9262 2.23684C16.5053 1.59826 15.9692 1.05204 15.2551 0.670939C14.5426 0.290701 13.6993 0.0996094 12.7 0.0996094V1.59961ZM16.3 3.39961H19V1.89961H16.3V3.39961ZM18.376 2.23358L16.576 4.93358L17.824 5.76563L19.624 3.06563L18.376 2.23358Z"/>
</svg>
